<svg height="16" viewBox="0 0 4.233 4.233" width="16" xmlns="http://www.w3.org/2000/svg"><path d="m0 2.265c0 .398.112.788.323 1.125l1.765-2.281c.013-.016.044-.016.057 0l.737.953h-.528l.011.042h.549l.156.201h-.648l.018.066h.681l.137.177h-.768l.024.085h.81l.122.158h-.888l.029.104h.939l.107.139h-1.008l.032.115h1.065l.099.128h-1.128l.032.115h1.185c.211-.337.323-.727.323-1.125 0-1.169-.947-2.116-2.117-2.116s-2.116.945-2.116 2.114zm2.761 1.253.032.115h.939l.091-.115zm.068.243.032.115h.628l.126-.115zm.067.243.032.114h.212l.184-.114z"/></svg>